<svg xmlns="http://www.w3.org/2000/svg" viewBox="0 0 1024 1024" width="1024" height="1024">
  <defs>
    <filter id="foreground-shadow" x="-4%" y="-4%" width="108%" height="112%" color-interpolation-filters="sRGB">
      <feDropShadow dx="2" dy="2" stdDeviation="6" flood-color="black" flood-opacity="0.3" />
    </filter>
  </defs>
  <path d="M512,1024 C748.4,1024 856.8,1024 940,940 C1024,856.8 1024,748.4 1024,512 C1024,275.6 1024,167.2 940,84 C856.8,0 748.4,0 512,0 C275.6,0 167.2,0 84,84 C0,167.2 0,275.6 0,512 C0,748.4 0,856.8 84,940 C167.2,1024 275.6,1024 512,1024 Z" fill="#e9d8b9" filter="url(#foreground-shadow)"/>
  <g filter="url(#foreground-shadow)">
    <path d="M 447.129187,376.168194 C 354.856782,373.645984 304.429027,336.211264 288.612008,263.573421 S 277.401037,191.91804 343.895323,205.139575 S 467.456819,261.969006 461.220528,365.215559 C 413.204354,302.558851 358.010156,261.15902 351.961774,267.286422 S 394.979564,301.558387 447.129187,376.168194 Z" fill="#a8ca9c" />
    <path d="M 482.205213,292.966805 C 480.65157,235.622244 512.199439,208.99901 553.115192,190.873095 S 597.366543,177.538771 594.768351,237.403855 S 534.234686,321.483443 518.837739,325.126417 S 483.758855,350.311366 482.205213,292.966805 Z" fill="#a7cb9c" />
    <path d="M 697.668152,696.446847 C 884.241024,707.39328 920.934193,465.133237 739.037048,473.755209 L 741.168632,524.375147 C 822.962215,493.791854 854.995128,629.682152 718.842896,652.16933 Z" fill="#fffefd" />
    <path d="M 283.310465,790.69921 C 235.319226,790.69921 239.245852,842.560134 481.951529,842.560134 S 728.583832,790.69921 680.592593,790.69921 Z" fill="#fffefd" />
    <path d="M 233.900135,430.17878 C 248.014146,409.384618 336.783667,405.164453 481.951529,405.164453 S 715.888911,409.384618 730.002922,430.17878 S 791.806386,805.048511 481.951529,805.048511 S 219.786125,450.972941 233.900135,430.17878 Z" fill="#fffefd" />
    <ellipse cx="387.159732" cy="572.252229" rx="19.494079" ry="20.002079" fill="#4d3b34" />
    <ellipse cx="576.743325" cy="572.252229" rx="19.494079" ry="20.002079" fill="#4d3b34" />
    <path d="M 451.315426,595.192363 A 35.386535,36.983111 0 0,0 512.587631,595.192363" stroke="#4d3b34" stroke-width="16.884216" stroke-linecap="round" fill="none" />
  </g>
  <g filter="url(#foreground-shadow)">
    <path d="M 724.624488,442.200021 A 134.224311,115.491035 0.136713 1,0 644.936219,399.547877 C 661.447341,417.945925 611.681004,476.805622 663.786479,456.812959 S 692.291681,436.571185 724.624488,442.200021 Z M 677.018123,328.771011 A 15.935341,16.138127 4.433783 0,1 708.793427,331.234834 A 15.935341,16.138127 4.433783 0,1 677.018123,328.771011 Z M 735.403,328.639385 A 16.114959,15.93502 5.577264 0,1 767.480344,331.771745 A 16.114959,15.93502 5.577264 0,1 735.403,328.639385 Z M 793.591998,330.181925 A 16.229515,15.994364 0 0,1 826.051027,330.181925 A 16.229515,15.994364 0 0,1 793.591998,330.181925 Z" fill="#fd9d8d" fill-rule="evenodd" />
  </g>
</svg>